<svg version="1.1" id="Layer_1" xmlns="http://www.w3.org/2000/svg" xmlns:xlink="http://www.w3.org/1999/xlink" x="0px" y="0px"
	 width="100%" viewBox="0 0 565 263" enable-background="new 0 0 565 263" xml:space="preserve">
<path fill="#FEFEFE" opacity="1.000000" stroke="none" 
	d="
M348.000000,264.000000 
	C232.034866,264.000000 116.569740,264.000000 1.052304,264.000000 
	C1.052304,176.394699 1.052304,88.789352 1.052304,1.092003 
	C189.215103,1.092003 377.430267,1.092003 565.822754,1.092003 
	C565.822754,88.666382 565.822754,176.333160 565.822754,264.000000 
	C493.456085,264.000000 420.978058,264.000000 348.000000,264.000000 
M259.396393,231.918350 
	C263.217682,227.475113 267.038971,223.031876 270.888062,218.556305 
	C273.366180,224.149109 275.294769,229.626724 278.096039,234.614182 
	C286.720062,249.968552 305.031067,250.041046 314.256409,234.909943 
	C316.458252,231.298538 318.462219,227.566498 321.350250,222.498123 
	C322.092560,223.991959 322.397339,224.999023 323.004272,225.767395 
	C331.490631,236.510666 341.116608,236.818939 350.130096,226.608582 
	C351.666473,224.868179 352.981476,222.923569 354.312836,221.013397 
	C355.673645,219.060989 356.928680,217.034866 358.705566,214.312363 
	C359.646881,217.296524 360.214600,219.362747 360.945190,221.369705 
	C366.001434,235.258774 380.570831,238.038513 389.945709,226.845139 
	C392.177643,224.180267 394.021240,221.189240 396.029022,218.338074 
	C396.897125,217.105316 397.728638,215.846756 399.192596,213.694550 
	C399.722992,216.058441 399.929108,217.153198 400.215820,218.226440 
	C402.139130,225.425674 403.413086,232.891357 406.198669,239.741562 
	C409.079681,246.826324 414.912842,248.782730 422.269012,246.761948 
	C429.685242,244.724716 433.529694,238.765884 437.180115,232.796875 
	C446.600006,217.393799 450.851227,200.032196 455.422668,182.844818 
	C455.832336,181.304565 454.016083,177.699554 452.908325,177.555573 
	C450.997437,177.307190 448.486389,178.634476 446.884277,180.046280 
	C445.674377,181.112396 445.500092,183.345810 444.846863,185.052811 
	C440.037354,197.621078 435.395813,210.258591 430.278046,222.700150 
	C429.130890,225.488983 426.311279,227.589844 424.261597,230.007416 
	C422.788666,226.907242 420.095245,223.826172 420.046417,220.703720 
	C419.783875,203.923096 419.451508,187.085327 420.528320,170.356461 
	C421.927368,148.621994 424.608612,126.969391 426.782898,105.286057 
	C427.247772,100.650093 425.248108,97.647865 421.099640,95.828232 
	C412.505341,92.058525 404.944763,96.746078 404.271179,106.341934 
	C402.569519,130.584976 401.465485,154.888062 398.996552,179.052109 
	C397.606323,192.658295 392.072388,205.342484 385.051086,217.165405 
	C384.351746,218.342957 382.257935,219.652512 381.177948,219.390366 
	C379.946869,219.091553 378.925110,217.203842 378.197784,215.806122 
	C377.694641,214.839294 377.657745,213.520554 377.731354,212.379639 
	C378.574982,199.295837 379.159790,186.183365 380.488983,173.147400 
	C381.279938,165.390167 378.794067,160.849472 371.595093,159.801117 
	C364.386658,158.751358 360.013000,162.245544 359.887817,170.227951 
	C359.651184,185.317749 353.877991,198.722275 347.740845,211.989944 
	C346.354797,214.986374 343.167480,217.149597 340.809296,219.696350 
	C339.555908,216.274948 337.125488,212.805603 337.262604,209.440857 
	C337.735413,197.838318 338.718781,186.221375 340.239929,174.706650 
	C341.776306,163.076828 334.788239,156.901382 323.649780,160.575623 
	C322.366119,160.999054 320.034180,160.558701 319.181152,159.618256 
	C309.943634,149.434067 299.357391,148.105194 288.279419,156.085495 
	C281.070496,161.278625 277.208466,168.851486 274.275238,176.884262 
	C271.943024,183.271118 270.601959,190.036774 268.056091,196.324631 
	C264.635529,204.772827 260.588928,212.977692 256.526581,221.145523 
	C255.873367,222.458878 253.542053,223.959747 252.344772,223.703049 
	C251.056412,223.426804 249.634827,221.315994 249.264755,219.768112 
	C248.655838,217.221329 248.455383,214.435608 248.771530,211.834351 
	C249.893326,202.604462 250.923187,193.335083 252.704102,184.220627 
	C255.051743,172.205536 254.424438,171.222290 242.171143,171.961227 
	C239.199280,172.140457 236.207428,171.987885 232.982513,171.987885 
	C233.507248,168.407318 234.105637,165.803253 234.226624,163.177216 
	C234.448532,158.359909 232.360840,156.538818 227.499710,156.937241 
	C219.350662,157.605148 214.345444,166.180023 217.300598,173.827652 
	C218.157532,176.045334 218.227844,178.855499 217.765869,181.219589 
	C217.216797,184.029556 216.327225,186.646240 219.766800,187.877060 
	C223.048172,189.051285 225.533493,187.344070 226.428482,184.338699 
	C227.798279,179.738998 230.667084,180.071289 234.570618,181.171494 
	C233.550308,186.144073 232.225128,190.922180 231.640030,195.789261 
	C230.243988,207.402145 229.351303,219.057526 234.387085,230.170319 
	C236.878708,235.668762 241.828995,238.747772 247.713348,237.431824 
	C251.609818,236.560394 255.157043,234.127365 259.396393,231.918350 
M244.498962,68.895851 
	C256.588318,67.971924 268.779999,67.717690 280.731537,65.891693 
	C288.876190,64.647324 290.244568,57.885933 284.412079,51.927197 
	C277.317017,44.678581 268.243134,42.485653 258.522003,41.968403 
	C225.278015,40.199543 192.332260,43.617706 159.373337,47.326550 
	C125.318077,51.158764 91.204651,54.472179 57.132515,58.159081 
	C53.050732,58.600761 48.784618,59.368027 45.144653,61.112568 
	C42.914974,62.181190 40.469940,65.383652 40.438736,67.659622 
	C40.412571,69.567596 43.412502,72.296127 45.671097,73.262558 
	C48.607624,74.519066 52.149586,74.872864 55.408199,74.783615 
	C82.053230,74.053841 108.691933,73.096085 135.335098,72.292076 
	C141.288544,72.112427 147.252029,72.265717 153.320801,72.265717 
	C152.270432,79.174965 150.650955,86.008255 150.288620,92.907570 
	C149.065552,116.195648 148.225433,139.504822 147.361450,162.810486 
	C146.664337,181.614792 146.090027,200.424179 145.566864,219.234238 
	C145.269409,229.928879 149.519028,238.264572 158.877289,243.797775 
	C163.291061,246.407486 166.338242,245.541641 167.607193,240.598907 
	C169.009430,235.137009 170.190689,229.538574 170.666977,223.931549 
	C174.088409,183.652893 172.549042,143.369385 170.337097,103.099777 
	C169.755112,92.504379 168.806992,81.929092 167.970566,70.578598 
	C193.294113,70.015701 218.396683,69.457710 244.498962,68.895851 
M357.498199,143.155716 
	C368.419037,147.725235 378.969849,147.441025 388.442505,139.858536 
	C396.126770,133.707565 394.283081,123.429718 384.972290,120.238884 
	C375.296906,116.923073 365.910797,118.090858 357.434723,123.978172 
	C350.363892,128.889435 350.198608,137.220901 357.498199,143.155716 
z"/>
<path fill="#242628" opacity="1.000000" stroke="none" 
	d="
M259.128510,232.155884 
	C255.157043,234.127365 251.609818,236.560394 247.713348,237.431824 
	C241.828995,238.747772 236.878708,235.668762 234.387085,230.170319 
	C229.351303,219.057526 230.243988,207.402145 231.640030,195.789261 
	C232.225128,190.922180 233.550308,186.144073 234.570618,181.171494 
	C230.667084,180.071289 227.798279,179.738998 226.428482,184.338699 
	C225.533493,187.344070 223.048172,189.051285 219.766800,187.877060 
	C216.327225,186.646240 217.216797,184.029556 217.765869,181.219589 
	C218.227844,178.855499 218.157532,176.045334 217.300598,173.827652 
	C214.345444,166.180023 219.350662,157.605148 227.499710,156.937241 
	C232.360840,156.538818 234.448532,158.359909 234.226624,163.177216 
	C234.105637,165.803253 233.507248,168.407318 232.982513,171.987885 
	C236.207428,171.987885 239.199280,172.140457 242.171143,171.961227 
	C254.424438,171.222290 255.051743,172.205536 252.704102,184.220627 
	C250.923187,193.335083 249.893326,202.604462 248.771530,211.834351 
	C248.455383,214.435608 248.655838,217.221329 249.264755,219.768112 
	C249.634827,221.315994 251.056412,223.426804 252.344772,223.703049 
	C253.542053,223.959747 255.873367,222.458878 256.526581,221.145523 
	C260.588928,212.977692 264.635529,204.772827 268.056091,196.324631 
	C270.601959,190.036774 271.943024,183.271118 274.275238,176.884262 
	C277.208466,168.851486 281.070496,161.278625 288.279419,156.085495 
	C299.357391,148.105194 309.943634,149.434067 319.181152,159.618256 
	C320.034180,160.558701 322.366119,160.999054 323.649780,160.575623 
	C334.788239,156.901382 341.776306,163.076828 340.239929,174.706650 
	C338.718781,186.221375 337.735413,197.838318 337.262604,209.440857 
	C337.125488,212.805603 339.555908,216.274948 340.809296,219.696350 
	C343.167480,217.149597 346.354797,214.986374 347.740845,211.989944 
	C353.877991,198.722275 359.651184,185.317749 359.887817,170.227951 
	C360.013000,162.245544 364.386658,158.751358 371.595093,159.801117 
	C378.794067,160.849472 381.279938,165.390167 380.488983,173.147400 
	C379.159790,186.183365 378.574982,199.295837 377.731354,212.379639 
	C377.657745,213.520554 377.694641,214.839294 378.197784,215.806122 
	C378.925110,217.203842 379.946869,219.091553 381.177948,219.390366 
	C382.257935,219.652512 384.351746,218.342957 385.051086,217.165405 
	C392.072388,205.342484 397.606323,192.658295 398.996552,179.052109 
	C401.465485,154.888062 402.569519,130.584976 404.271179,106.341934 
	C404.944763,96.746078 412.505341,92.058525 421.099640,95.828232 
	C425.248108,97.647865 427.247772,100.650093 426.782898,105.286057 
	C424.608612,126.969391 421.927368,148.621994 420.528320,170.356461 
	C419.451508,187.085327 419.783875,203.923096 420.046417,220.703720 
	C420.095245,223.826172 422.788666,226.907242 424.261597,230.007416 
	C426.311279,227.589844 429.130890,225.488983 430.278046,222.700150 
	C435.395813,210.258591 440.037354,197.621078 444.846863,185.052811 
	C445.500092,183.345810 445.674377,181.112396 446.884277,180.046280 
	C448.486389,178.634476 450.997437,177.307190 452.908325,177.555573 
	C454.016083,177.699554 455.832336,181.304565 455.422668,182.844818 
	C450.851227,200.032196 446.600006,217.393799 437.180115,232.796875 
	C433.529694,238.765884 429.685242,244.724716 422.269012,246.761948 
	C414.912842,248.782730 409.079681,246.826324 406.198669,239.741562 
	C403.413086,232.891357 402.139130,225.425674 400.215820,218.226440 
	C399.929108,217.153198 399.722992,216.058441 399.192596,213.694550 
	C397.728638,215.846756 396.897125,217.105316 396.029022,218.338074 
	C394.021240,221.189240 392.177643,224.180267 389.945709,226.845139 
	C380.570831,238.038513 366.001434,235.258774 360.945190,221.369705 
	C360.214600,219.362747 359.646881,217.296524 358.705566,214.312363 
	C356.928680,217.034866 355.673645,219.060989 354.312836,221.013397 
	C352.981476,222.923569 351.666473,224.868179 350.130096,226.608582 
	C341.116608,236.818939 331.490631,236.510666 323.004272,225.767395 
	C322.397339,224.999023 322.092560,223.991959 321.350250,222.498123 
	C318.462219,227.566498 316.458252,231.298538 314.256409,234.909943 
	C305.031067,250.041046 286.720062,249.968552 278.096039,234.614182 
	C275.294769,229.626724 273.366180,224.149109 270.888062,218.556305 
	C267.038971,223.031876 263.217682,227.475113 259.128510,232.155884 
M311.345795,166.750046 
	C305.061920,164.619064 301.051331,166.018372 297.562836,172.839310 
	C288.822052,189.929810 286.903625,207.940765 291.444153,226.605591 
	C292.313782,230.180542 293.981262,233.290283 297.978607,233.989410 
	C302.272217,234.740326 304.858795,232.045547 306.795807,228.747131 
	C315.914032,213.220215 318.662933,196.382004 316.285034,178.734589 
	C315.753174,174.787292 313.451660,171.078445 311.345795,166.750046 
z"/>
<path fill="#232527" opacity="1.000000" stroke="none" 
	d="
M243.999115,68.897789 
	C218.396683,69.457710 193.294113,70.015701 167.970566,70.578598 
	C168.806992,81.929092 169.755112,92.504379 170.337097,103.099777 
	C172.549042,143.369385 174.088409,183.652893 170.666977,223.931549 
	C170.190689,229.538574 169.009430,235.137009 167.607193,240.598907 
	C166.338242,245.541641 163.291061,246.407486 158.877289,243.797775 
	C149.519028,238.264572 145.269409,229.928879 145.566864,219.234238 
	C146.090027,200.424179 146.664337,181.614792 147.361450,162.810486 
	C148.225433,139.504822 149.065552,116.195648 150.288620,92.907570 
	C150.650955,86.008255 152.270432,79.174965 153.320801,72.265717 
	C147.252029,72.265717 141.288544,72.112427 135.335098,72.292076 
	C108.691933,73.096085 82.053230,74.053841 55.408199,74.783615 
	C52.149586,74.872864 48.607624,74.519066 45.671097,73.262558 
	C43.412502,72.296127 40.412571,69.567596 40.438736,67.659622 
	C40.469940,65.383652 42.914974,62.181190 45.144653,61.112568 
	C48.784618,59.368027 53.050732,58.600761 57.132515,58.159081 
	C91.204651,54.472179 125.318077,51.158764 159.373337,47.326550 
	C192.332260,43.617706 225.278015,40.199543 258.522003,41.968403 
	C268.243134,42.485653 277.317017,44.678581 284.412079,51.927197 
	C290.244568,57.885933 288.876190,64.647324 280.731537,65.891693 
	C268.779999,67.717690 256.588318,67.971924 243.999115,68.897789 
z"/>
<path fill="#242628" opacity="1.000000" stroke="none" 
	d="
M357.149200,143.004227 
	C350.198608,137.220901 350.363892,128.889435 357.434723,123.978172 
	C365.910797,118.090858 375.296906,116.923073 384.972290,120.238884 
	C394.283081,123.429718 396.126770,133.707565 388.442505,139.858536 
	C378.969849,147.441025 368.419037,147.725235 357.149200,143.004227 
z"/>
<path fill="#FAFAFB" opacity="1.000000" stroke="none" 
	d="
M311.655334,167.004944 
	C313.451660,171.078445 315.753174,174.787292 316.285034,178.734589 
	C318.662933,196.382004 315.914032,213.220215 306.795807,228.747131 
	C304.858795,232.045547 302.272217,234.740326 297.978607,233.989410 
	C293.981262,233.290283 292.313782,230.180542 291.444153,226.605591 
	C286.903625,207.940765 288.822052,189.929810 297.562836,172.839310 
	C301.051331,166.018372 305.061920,164.619064 311.655334,167.004944 
z"/>
</svg>